<?xml version="1.0" standalone="no"?>
<!DOCTYPE svg PUBLIC "-//W3C//DTD SVG 20010904//EN"
 "http://www.w3.org/TR/2001/REC-SVG-20010904/DTD/svg10.dtd">
<svg version="1.0" xmlns="http://www.w3.org/2000/svg"
 width="500.000000pt" height="500.000000pt" viewBox="0 0 500.000000 500.000000"
 preserveAspectRatio="xMidYMid meet">

<g transform="translate(0.000000,500.000000) scale(0.100000,-0.100000)"
fill="#000000" stroke="none">
<path d="M2305 4060 c-3 -5 -1 -10 4 -10 6 0 11 5 11 10 0 6 -2 10 -4 10 -3 0
-8 -4 -11 -10z"/>
<path d="M2430 4066 c0 -2 12 -35 26 -72 23 -64 44 -100 44 -79 0 18 -55 155
-62 155 -5 0 -8 -2 -8 -4z"/>
<path d="M2616 4043 c-14 -77 -17 -133 -7 -133 6 0 11 6 11 13 0 6 3 42 6 80
7 67 0 92 -10 40z"/>
<path d="M2238 4054 c-9 -14 12 -154 23 -154 9 0 7 20 -10 125 -4 22 -10 35
-13 29z"/>
<path d="M2683 4019 c0 -17 -6 -35 -14 -40 -8 -5 -9 -9 -3 -9 27 0 48 60 26
74 -5 3 -9 -9 -9 -25z"/>
<path d="M2792 3962 c-18 -69 -21 -94 -8 -81 11 11 44 149 37 153 -4 3 -17
-29 -29 -72z"/>
<path d="M2875 4010 c3 -5 11 -10 16 -10 6 0 7 5 4 10 -3 6 -11 10 -16 10 -6
0 -7 -4 -4 -10z"/>
<path d="M2296 3985 c4 -8 10 -12 15 -9 11 6 2 24 -11 24 -5 0 -7 -7 -4 -15z"/>
<path d="M1985 3934 c23 -33 29 -55 28 -91 -1 -7 4 -10 9 -7 15 10 2 70 -22
104 -31 43 -44 37 -15 -6z"/>
<path d="M2971 3907 c-17 -38 -28 -73 -25 -79 7 -12 66 122 60 137 -2 5 -18
-21 -35 -58z"/>
<path d="M2851 3944 c0 -11 3 -14 6 -6 3 7 2 16 -1 19 -3 4 -6 -2 -5 -13z"/>
<path d="M1918 3940 c-10 -31 30 -120 54 -120 6 0 3 9 -7 20 -10 11 -23 41
-30 67 -7 26 -14 41 -17 33z"/>
<path d="M3050 3928 c0 -15 -7 -34 -16 -42 -8 -9 -11 -16 -5 -16 13 0 41 29
41 43 0 7 -5 19 -10 27 -8 12 -10 9 -10 -12z"/>
<path d="M2326 3931 c-4 -7 -5 -15 -2 -18 9 -9 19 4 14 18 -4 11 -6 11 -12 0z"/>
<path d="M2840 3875 c-10 -12 -10 -15 4 -15 9 0 16 7 16 15 0 8 -2 15 -4 15
-2 0 -9 -7 -16 -15z"/>
<path d="M3147 3824 c-21 -36 -37 -70 -35 -76 2 -6 23 21 45 60 23 39 39 74
35 76 -4 2 -24 -25 -45 -60z"/>
<path d="M1816 3853 c13 -14 27 -38 30 -52 10 -44 12 -47 13 -16 1 35 -32 95
-53 95 -11 0 -8 -8 10 -27z"/>
<path d="M1738 3864 c-9 -8 65 -133 79 -134 6 0 -7 30 -29 68 -48 80 -43 73
-50 66z"/>
<path d="M3003 3834 c-2 -19 2 -34 7 -34 12 0 14 57 3 63 -5 3 -9 -10 -10 -29z"/>
<path d="M3257 3760 c-37 -50 -54 -80 -44 -80 4 0 75 91 91 118 4 6 3 12 -1
12 -5 0 -26 -23 -46 -50z"/>
<path d="M3350 3760 c0 -5 5 -10 10 -10 6 0 10 5 10 10 0 6 -4 10 -10 10 -5 0
-10 -4 -10 -10z"/>
<path d="M1577 3753 c-6 -6 130 -92 146 -93 18 0 4 18 -25 33 -18 8 -51 27
-74 41 -23 14 -44 23 -47 19z"/>
<path d="M3295 3721 c-3 -5 -1 -12 5 -16 5 -3 10 1 10 9 0 18 -6 21 -15 7z"/>
<path d="M3421 3620 c-31 -71 -39 -106 -21 -95 6 3 10 13 10 20 0 8 13 42 29
75 16 33 26 62 21 65 -4 2 -22 -27 -39 -65z"/>
<path d="M3260 3650 c0 -5 4 -10 9 -10 6 0 13 5 16 10 3 6 -1 10 -9 10 -9 0
-16 -4 -16 -10z"/>
<path d="M1460 3621 c0 -13 129 -81 135 -71 3 4 -27 24 -65 44 -39 21 -70 33
-70 27z"/>
<path d="M3528 3514 c-48 -25 -63 -80 -30 -105 14 -11 15 -11 5 1 -7 8 -13 21
-13 30 0 20 41 60 78 76 22 10 23 12 7 13 -11 0 -32 -6 -47 -15z"/>
<path d="M1345 3510 c-3 -5 1 -10 10 -10 9 0 13 5 10 10 -3 6 -8 10 -10 10 -2
0 -7 -4 -10 -10z"/>
<path d="M3580 3460 c0 -5 6 -10 14 -10 8 0 18 5 21 10 3 6 -3 10 -14 10 -12
0 -21 -4 -21 -10z"/>
<path d="M1307 3453 c-7 -6 110 -93 126 -93 15 0 -1 16 -61 58 -33 23 -62 39
-65 35z"/>
<path d="M1395 3450 c3 -5 8 -10 11 -10 2 0 4 5 4 10 0 6 -5 10 -11 10 -5 0
-7 -4 -4 -10z"/>
<path d="M1460 3426 c0 -9 5 -16 10 -16 6 0 10 4 10 9 0 6 -4 13 -10 16 -5 3
-10 -1 -10 -9z"/>
<path d="M2315 3420 c-3 -6 3 -22 14 -36 28 -36 27 -46 -14 -105 -19 -28 -35
-61 -35 -73 0 -24 35 -86 49 -86 20 0 21 20 2 51 -22 35 -19 47 21 103 33 46
36 87 7 127 -21 30 -34 36 -44 19z"/>
<path d="M2455 3420 c-3 -6 3 -22 14 -36 28 -36 27 -46 -14 -105 -19 -28 -35
-61 -35 -73 0 -24 35 -86 49 -86 19 0 22 20 7 42 -24 33 -20 63 14 110 35 48
38 88 9 129 -21 30 -34 36 -44 19z"/>
<path d="M2595 3420 c-3 -6 3 -22 14 -36 28 -36 27 -46 -14 -105 -19 -28 -35
-61 -35 -73 0 -24 35 -86 49 -86 19 0 22 20 7 42 -24 33 -20 63 14 110 35 48
38 88 9 129 -21 30 -34 36 -44 19z"/>
<path d="M3627 3349 c-38 -23 -66 -43 -63 -46 7 -7 136 68 136 79 0 11 2 12
-73 -33z"/>
<path d="M1236 3321 c-4 -5 2 -7 12 -5 9 3 27 -4 40 -16 24 -23 28 -19 12 11
-11 19 -54 26 -64 10z"/>
<path d="M1200 3273 c1 -12 138 -78 146 -71 3 4 -26 23 -65 42 -75 38 -81 40
-81 29z"/>
<path d="M1310 3270 c-11 -7 -3 -10 30 -9 34 0 40 2 25 9 -27 12 -37 12 -55 0z"/>
<path d="M3693 3186 c-29 -24 -49 -46 -46 -50 3 -3 24 9 46 27 21 17 49 40 61
49 15 13 17 17 6 17 -8 0 -38 -20 -67 -43z"/>
<path d="M1186 3146 c3 -9 11 -16 16 -16 13 0 5 23 -10 28 -7 2 -10 -2 -6 -12z"/>
<path d="M1140 3115 c-1 -42 83 -85 124 -63 23 12 36 27 36 43 0 5 -7 -1 -16
-13 -9 -13 -26 -22 -40 -22 -32 0 -80 25 -93 47 -6 10 -11 13 -11 8z"/>
<path d="M3774 3053 c-9 -16 -25 -40 -36 -55 -18 -27 -15 -35 8 -20 6 4 21 26
32 49 12 23 30 44 39 46 14 4 13 5 -4 6 -15 1 -28 -9 -39 -26z"/>
<path d="M2137 3013 c7 -96 43 -299 64 -360 38 -110 19 -103 259 -103 l209 0
28 59 c27 58 28 59 75 63 58 6 117 43 149 95 18 29 24 53 24 98 0 80 -27 131
-90 170 l-48 30 -337 3 -337 3 4 -58z m686 -53 c49 -39 54 -133 9 -173 -20
-19 -73 -40 -80 -32 -3 3 0 44 7 92 21 150 19 148 64 113z"/>
<path d="M3710 3050 c19 -13 30 -13 30 0 0 6 -10 10 -22 10 -19 0 -20 -2 -8
-10z"/>
<path d="M3815 3019 c-10 -15 3 -25 16 -12 7 7 7 13 1 17 -6 3 -14 1 -17 -5z"/>
<path d="M2090 2527 c-3 -3 -38 -7 -78 -8 -72 -3 -72 -3 -78 -34 -10 -53 8
-98 41 -107 17 -4 119 -7 227 -6 109 1 201 -2 205 -5 3 -4 -29 -7 -73 -8 -85
-1 -98 -2 -159 -18 -22 -6 -69 -11 -104 -12 l-63 -2 4 -53 c5 -62 20 -84 58
-84 21 0 29 -6 34 -25 10 -39 45 -47 180 -40 67 3 193 8 281 11 88 2 176 7
195 10 19 2 115 6 213 9 152 3 180 6 191 20 9 13 26 16 86 13 l74 -3 27 55
c15 30 25 58 23 61 -7 13 -200 40 -381 55 -46 4 -83 10 -83 14 0 4 9 32 19 63
11 32 16 57 11 57 -5 0 -7 7 -4 15 5 13 -23 15 -222 15 -126 1 -317 3 -424 6
-107 3 -197 3 -200 1z m548 -154 c-10 -2 -26 -2 -35 0 -10 3 -2 5 17 5 19 0
27 -2 18 -5z"/>
<path d="M931 1898 c-22 -61 -23 -68 -4 -68 10 1 33 21 51 45 l33 45 -36 0
c-28 0 -37 -5 -44 -22z"/>
<path d="M1720 1813 c-64 -21 -96 -64 -86 -117 7 -39 39 -70 129 -126 90 -56
107 -90 67 -130 -27 -27 -98 -27 -133 1 -15 11 -32 38 -38 60 -16 51 -29 50
-29 -2 0 -55 12 -74 60 -93 71 -28 168 -16 207 26 53 59 33 126 -53 179 -115
71 -134 87 -134 118 0 64 88 84 141 32 16 -16 32 -43 35 -60 10 -50 25 -35 22
22 -3 51 -4 53 -48 75 -41 21 -103 28 -140 15z"/>
<path d="M847 1663 c-124 -277 -118 -263 -101 -263 9 0 26 23 40 55 l25 55 84
0 c82 0 83 0 95 -30 22 -53 64 -80 126 -80 l54 0 1 168 0 167 85 -167 c46 -93
88 -168 93 -168 8 0 44 80 118 260 l18 45 6 -131 c6 -152 16 -176 79 -195 44
-13 63 -6 36 14 -27 20 -36 80 -36 255 l0 162 -39 0 -38 0 -57 -137 c-31 -76
-60 -143 -64 -150 -5 -8 -36 45 -82 137 l-74 150 -38 0 -38 0 0 -196 c0 -205
-3 -216 -42 -163 -10 13 -49 98 -87 189 -38 91 -75 166 -83 168 -10 2 -36 -45
-81 -145z m112 -110 c1 -9 -19 -13 -65 -13 -50 0 -65 3 -61 13 3 7 18 43 33
80 l29 67 32 -67 c17 -38 32 -74 32 -80z"/>
<path d="M1946 1794 c-18 -17 -22 -84 -6 -84 6 0 10 7 10 15 0 27 38 55 75 55
l35 0 0 -190 0 -190 40 0 40 0 0 189 0 189 71 4 c39 2 76 0 83 -4 7 -5 12 -67
14 -193 l3 -185 123 0 c137 0 150 5 163 71 l6 34 -35 -37 c-34 -37 -37 -38
-107 -38 l-71 0 0 85 0 85 81 0 c60 0 80 3 77 13 -3 8 -31 13 -81 15 l-77 3 0
74 0 75 63 0 c69 0 107 -18 107 -51 0 -10 5 -19 10 -19 6 0 10 18 10 40 0 29
-5 42 -19 50 -12 6 -129 10 -310 10 -250 0 -292 -2 -305 -16z"/>
<path d="M2600 1801 c0 -6 7 -11 15 -11 29 0 35 -39 35 -214 l0 -176 40 0 40
0 0 95 c0 56 4 95 10 95 5 0 34 -38 64 -84 58 -90 79 -108 132 -109 36 -1 58
13 34 21 -24 8 -73 65 -103 120 l-28 51 39 20 c52 27 70 68 51 118 -24 62 -63
77 -206 82 -85 2 -123 0 -123 -8z m229 -47 c12 -15 21 -41 21 -59 0 -47 -27
-75 -78 -82 l-42 -6 0 87 0 86 39 0 c31 0 44 -6 60 -26z"/>
<path d="M2950 1802 c0 -4 10 -12 23 -17 22 -10 22 -14 25 -199 l2 -188 113 4
c91 3 120 8 154 26 80 42 118 125 101 222 -14 78 -69 130 -159 149 -57 12
-259 15 -259 3z m258 -42 c86 -53 98 -226 19 -298 -28 -27 -83 -42 -121 -35
l-26 5 0 174 0 174 48 0 c29 0 59 -8 80 -20z"/>
<path d="M3464 1605 c-74 -165 -89 -205 -75 -205 12 0 25 19 40 55 l23 55 84
0 84 0 20 -40 c24 -48 64 -70 125 -70 l45 0 1 168 0 167 85 -168 c47 -94 90
-167 96 -165 6 2 39 70 72 150 34 81 65 150 69 154 4 4 7 -52 7 -124 0 -166
10 -189 88 -207 37 -8 40 -3 12 25 -19 19 -20 33 -20 215 l0 195 -42 0 -43 0
-60 -146 c-33 -80 -63 -148 -66 -150 -3 -2 -39 64 -78 146 l-72 150 -40 0 -39
0 0 -195 c0 -107 -4 -195 -8 -195 -21 0 -46 47 -115 211 -42 102 -79 175 -87
177 -11 1 -42 -59 -106 -203z m113 10 l32 -75 -70 0 c-39 0 -69 4 -67 8 33 81
62 142 68 142 3 0 20 -34 37 -75z"/>
<path d="M3317 1313 c-9 -9 -9 -43 1 -43 4 0 15 12 25 25 17 24 17 25 -1 25
-10 0 -22 -3 -25 -7z"/>
<path d="M1555 1253 c-78 -20 -126 -127 -94 -210 27 -72 96 -106 170 -84 37
11 79 54 66 68 -4 3 -9 -2 -13 -11 -9 -22 -56 -46 -92 -46 -66 0 -110 76 -96
166 8 58 38 93 86 101 45 7 85 -15 94 -52 9 -35 21 -31 16 6 -2 16 -14 36 -26
43 -25 16 -83 26 -111 19z"/>
<path d="M1805 1138 c-26 -62 -54 -128 -62 -145 -8 -20 -9 -33 -3 -33 6 0 17
18 26 40 l16 40 63 0 c60 0 63 -1 75 -30 14 -33 37 -50 69 -50 20 0 19 1 -2
23 -13 12 -45 77 -72 144 -28 68 -53 123 -56 123 -3 0 -28 -51 -54 -112z m69
-76 c-13 -2 -37 -2 -52 0 l-29 3 25 59 26 59 26 -59 27 -59 -23 -3z"/>
<path d="M2023 1239 c15 -9 17 -27 17 -144 0 -128 1 -135 20 -135 18 0 20 7
20 70 l0 70 53 2 52 1 -50 6 -50 6 -3 58 -3 57 50 0 c42 0 52 -4 70 -27 19
-26 20 -27 21 -6 0 42 -24 53 -123 53 -67 -1 -87 -3 -74 -11z"/>
<path d="M2253 1239 c15 -9 17 -27 17 -144 l0 -135 84 0 c76 0 86 2 100 22 24
33 19 45 -7 20 -18 -17 -36 -22 -80 -22 l-57 0 0 60 0 60 60 0 c33 0 60 4 60
10 0 6 -27 10 -60 10 l-60 0 0 55 0 55 53 0 c57 0 68 -5 85 -35 11 -19 11 -19
12 6 0 43 -16 49 -124 49 -74 -1 -96 -3 -83 -11z"/>
<path d="M2502 1238 c-7 -7 -12 -23 -12 -37 1 -25 1 -25 12 -6 15 27 28 35 61
35 l27 0 0 -135 c0 -128 1 -135 20 -135 19 0 20 7 20 135 l0 135 50 0 c28 0
50 5 50 10 0 15 -213 13 -228 -2z"/>
<path d="M2763 1239 c15 -9 17 -27 17 -144 l0 -135 84 0 c76 0 86 2 100 22 24
33 19 45 -7 20 -18 -17 -36 -22 -80 -22 l-57 0 0 60 0 60 60 0 c33 0 60 4 60
10 0 6 -27 10 -60 10 l-60 0 0 55 0 55 53 0 c57 0 68 -5 85 -35 11 -19 11 -19
12 6 0 43 -16 49 -125 49 -73 -1 -95 -3 -82 -11z"/>
<path d="M3018 1240 c21 -9 22 -14 22 -145 0 -128 1 -135 20 -135 18 0 20 7
20 65 0 56 3 65 18 65 10 0 26 -16 37 -37 35 -65 64 -93 97 -93 l31 0 -27 21
c-24 19 -83 107 -75 112 2 2 17 11 32 21 25 15 28 22 25 59 -3 37 -7 44 -38
59 -24 13 -58 18 -110 17 -55 0 -69 -3 -52 -9z m142 -30 c11 -11 20 -29 20
-40 0 -29 -36 -60 -70 -60 l-30 0 0 60 0 60 30 0 c17 0 39 -9 50 -20z"/>
<path d="M3297 1243 c-11 -11 -8 -243 3 -264 7 -13 21 -19 43 -18 18 0 25 3
17 6 -27 10 -30 26 -30 156 0 99 -3 127 -13 127 -8 0 -17 -3 -20 -7z"/>
<path d="M3501 1229 c-5 -13 -32 -77 -60 -142 -56 -130 -55 -127 -42 -127 5 0
16 18 25 40 l16 40 65 0 c52 0 65 -3 65 -15 0 -26 47 -65 77 -64 27 0 27 1 6
11 -15 7 -37 49 -73 137 -29 69 -56 130 -61 135 -5 5 -12 -1 -18 -15z m43
-147 c7 -21 5 -22 -43 -22 -28 0 -51 2 -51 4 0 2 12 30 26 62 l27 59 17 -40
c9 -22 20 -50 24 -63z"/>
<path d="M1907 804 c-4 -4 -4 -11 -1 -15 3 -5 270 -9 595 -9 517 0 589 2 589
15 0 13 -72 15 -588 15 -324 0 -592 -3 -595 -6z"/>
<path d="M3133 663 c-59 -12 -112 -107 -99 -177 9 -49 43 -96 81 -112 46 -19
73 -18 114 4 91 49 96 210 9 265 -27 18 -74 26 -105 20z m87 -41 c70 -71 38
-242 -45 -242 -62 0 -95 47 -95 135 0 118 73 173 140 107z"/>
<path d="M1528 645 c21 -15 22 -23 22 -146 l0 -129 63 0 c117 1 177 49 177
144 0 102 -46 137 -189 143 -91 5 -95 4 -73 -12z m156 -17 c74 -33 85 -166 19
-218 -17 -13 -41 -20 -69 -20 l-44 0 0 125 0 125 35 0 c19 0 45 -5 59 -12z"/>
<path d="M1838 650 c21 -9 22 -14 22 -145 l0 -135 84 0 c85 0 95 4 110 45 7
18 5 18 -17 -3 -18 -17 -35 -22 -80 -22 l-57 0 0 60 0 60 60 0 c33 0 60 4 60
10 0 6 -27 10 -60 10 l-60 0 0 55 0 55 54 0 c45 0 58 -4 70 -22 l16 -22 0 26
c0 34 -14 38 -128 37 -68 0 -90 -3 -74 -9z"/>
<path d="M2253 515 c-33 -80 -56 -145 -51 -145 5 0 17 18 25 40 l16 40 64 0
c52 0 65 -3 70 -17 11 -33 46 -63 72 -63 25 0 25 0 5 15 -12 8 -43 69 -74 145
-29 71 -56 130 -59 130 -4 0 -34 -65 -68 -145z m83 12 l22 -52 -45 -3 c-25 -2
-47 -1 -50 2 -3 3 5 30 18 60 12 31 25 53 28 50 3 -3 15 -28 27 -57z"/>
<path d="M2477 650 c20 -8 21 -17 25 -120 3 -108 4 -113 31 -136 37 -31 122
-34 158 -5 23 18 24 26 25 148 l2 128 -8 -112 c-5 -76 -12 -120 -23 -137 -32
-47 -118 -42 -137 9 -6 15 -10 68 -10 119 0 102 -7 116 -54 115 -28 0 -29 -1
-9 -9z"/>
<path d="M2783 653 c-7 -2 -13 -19 -13 -36 l0 -32 13 25 c9 19 22 26 50 28
l37 3 0 -135 c0 -129 1 -136 20 -136 19 0 20 7 20 135 l0 135 50 0 c28 0 50 5
50 10 0 10 -203 13 -227 3z"/>
<path d="M3348 644 c21 -14 22 -22 22 -145 0 -122 1 -129 20 -129 18 0 20 7
20 65 0 77 16 86 51 28 39 -65 70 -93 103 -92 30 0 30 1 8 11 -20 10 -82 97
-82 117 0 4 11 13 25 19 27 13 40 49 31 88 -9 35 -60 54 -148 54 -68 0 -71 -1
-50 -16z m142 -24 c11 -11 20 -29 20 -40 0 -29 -36 -60 -70 -60 l-30 0 0 60 0
60 30 0 c17 0 39 -9 50 -20z"/>
</g>
</svg>
